<?xml version="1.0" standalone="no"?>
<!DOCTYPE svg PUBLIC "-//W3C//DTD SVG 20010904//EN"
 "http://www.w3.org/TR/2001/REC-SVG-20010904/DTD/svg10.dtd">
<svg version="1.0" xmlns="http://www.w3.org/2000/svg"
 width="700.000000pt" height="700.000000pt" viewBox="0 0 700.000000 700.000000"
 preserveAspectRatio="xMidYMid meet">
<metadata>
Created by potrace 1.14, written by Peter Selinger 2001-2017
</metadata>
<g transform="translate(0.000000,700.000000) scale(0.100000,-0.100000)"
fill="#000000" stroke="none">
<path d="M1409 6305 c-1 -5 -3 -136 -3 -290 l-1 -280 -703 0 -702 0 0 -2525 0
-2525 2432 0 c1616 0 2435 3 2439 10 3 5 6 724 5 1597 -1 873 2 1584 6 1580 3
-4 9 -23 12 -42 3 -19 39 -204 80 -410 41 -206 77 -386 80 -400 2 -14 25 -126
50 -250 24 -124 47 -236 50 -250 2 -14 14 -74 26 -135 12 -60 24 -119 26 -130
2 -11 6 -31 9 -45 3 -14 7 -36 10 -50 3 -14 14 -72 26 -129 11 -57 23 -114 25
-125 2 -12 6 -32 9 -46 2 -14 9 -50 15 -80 6 -30 15 -73 20 -95 5 -22 12 -53
14 -70 2 -16 10 -55 16 -85 6 -30 14 -66 16 -80 27 -149 152 -751 157 -756 4
-4 57 3 119 16 62 12 122 24 133 26 11 2 99 19 195 38 96 19 186 37 200 40 14
2 36 7 50 10 14 3 36 8 50 10 14 2 36 7 50 10 14 3 36 8 50 10 14 3 36 7 50
10 44 10 74 16 107 21 18 3 61 12 95 20 35 8 79 17 98 20 19 3 46 8 60 10 14
3 34 7 45 9 80 16 168 36 171 39 2 1 -8 57 -22 122 -13 66 -27 134 -30 150 -8
47 -132 675 -143 725 -10 43 -26 128 -36 181 -3 13 -43 215 -89 449 -47 234
-87 436 -90 450 -4 21 -41 204 -51 250 -1 8 -6 35 -11 60 -4 25 -8 47 -9 50
-1 3 -5 25 -10 50 -5 25 -9 47 -10 50 -2 10 -15 76 -19 95 -2 11 -11 54 -20
95 -8 41 -18 90 -21 109 -3 18 -19 101 -36 185 -17 83 -33 160 -35 171 -2 11
-6 31 -9 45 -2 14 -16 81 -30 150 -14 69 -30 148 -35 175 -5 28 -30 154 -55
280 -25 127 -48 241 -51 255 -45 225 -55 280 -60 310 -3 19 -8 38 -10 41 -2 4
-100 -13 -219 -37 -118 -24 -227 -46 -242 -49 -16 -2 -71 -13 -123 -24 -52
-11 -112 -22 -134 -25 -21 -4 -41 -8 -45 -10 -3 -2 -23 -7 -43 -10 -21 -3 -57
-10 -80 -15 -24 -5 -59 -12 -78 -15 -19 -3 -85 -16 -146 -29 -61 -13 -115 -22
-120 -20 -5 2 -9 133 -8 317 l1 314 -26 4 c-14 1 -420 3 -901 3 l-875 -1 0
240 0 241 -833 0 c-547 0 -833 -3 -833 -10z"/>
</g>
</svg>
