<?xml version="1.0" standalone="no"?>
<!DOCTYPE svg PUBLIC "-//W3C//DTD SVG 20010904//EN"
 "http://www.w3.org/TR/2001/REC-SVG-20010904/DTD/svg10.dtd">
<svg version="1.0" xmlns="http://www.w3.org/2000/svg"
 width="884.000000pt" height="884.000000pt" viewBox="0 0 884.000000 884.000000"
 preserveAspectRatio="xMidYMid meet">
<metadata>
Created by potrace 1.14, written by Peter Selinger 2001-2017
</metadata>
<g transform="translate(0.000000,884.000000) scale(0.100000,-0.100000)"
fill="#000000" stroke="none">
<path d="M4026 8803 c-2 -2 -61 -5 -132 -8 -145 -6 -154 -10 -215 -88 -60 -80
-73 -131 -75 -307 -2 -154 -6 -199 -26 -275 -6 -22 -11 -44 -12 -50 -1 -5 -8
-21 -16 -35 -7 -14 -12 -25 -9 -25 14 0 -67 -118 -108 -156 -53 -50 -139 -106
-175 -113 -13 -2 -36 -9 -53 -16 -51 -20 -142 -33 -230 -33 -79 0 -186 28
-245 64 -8 5 -25 13 -37 19 -36 15 -165 149 -208 214 -104 157 -205 199 -331
136 -49 -24 -113 -82 -344 -313 -157 -157 -314 -315 -350 -353 -110 -116 -149
-187 -146 -264 4 -81 53 -137 205 -235 104 -66 171 -136 214 -225 45 -91 59
-159 55 -270 -2 -82 -30 -209 -57 -257 -6 -13 -9 -23 -5 -23 4 0 0 -8 -8 -17
-8 -10 -18 -25 -22 -33 -52 -112 -204 -231 -329 -256 -10 -2 -26 -5 -35 -8
-16 -5 -136 -18 -157 -18 -5 0 -81 3 -168 5 -231 7 -299 -13 -313 -92 -6 -31
-9 -96 -4 -103 1 -2 3 -19 5 -38 8 -67 12 -91 18 -96 3 -4 39 -8 79 -9 78 -4
274 -13 453 -21 61 -2 157 -7 215 -9 58 -3 159 -7 225 -10 66 -4 154 -8 195
-10 114 -5 347 -16 417 -20 67 -3 72 -1 78 42 10 64 89 312 132 413 71 168
215 412 310 529 64 79 174 188 258 258 111 91 103 85 143 108 17 11 32 23 32
27 0 4 5 8 10 8 6 0 29 12 52 26 95 60 345 170 430 188 13 3 59 15 103 26 44
11 96 23 115 26 19 3 46 7 60 10 69 13 186 19 390 18 255 0 339 -4 346 -16 3
-5 9 -6 15 -3 7 5 35 1 157 -21 13 -3 49 -12 80 -20 32 -8 64 -17 72 -19 8 -2
15 -4 15 -5 0 -1 7 -3 15 -5 77 -17 289 -112 410 -184 349 -208 586 -491 795
-946 25 -54 100 -276 121 -360 4 -16 8 -32 9 -35 1 -3 4 -19 9 -36 l7 -31 82
3 c81 2 231 9 442 20 171 8 239 12 385 18 74 3 180 8 235 11 103 6 296 14 423
18 78 3 93 12 98 62 1 11 5 43 9 70 18 131 -6 184 -95 204 -34 7 -273 7 -365
-1 -5 0 -46 2 -91 5 -191 15 -352 109 -437 257 -36 61 -77 157 -82 192 -3 13
-8 42 -13 65 -11 49 -9 190 3 248 23 119 131 264 249 335 83 50 150 104 182
145 22 29 28 49 30 93 1 32 -2 63 -8 70 -6 6 -8 12 -4 12 11 0 -54 97 -102
151 -107 120 -644 650 -692 683 -29 20 -55 36 -59 37 -3 0 -15 3 -26 5 -94 22
-196 -35 -271 -152 -33 -51 -47 -68 -124 -144 -148 -148 -329 -196 -547 -145
-49 11 -59 14 -98 28 -163 59 -280 188 -325 357 -27 100 -32 146 -34 320 -2
150 -3 158 -32 215 -39 80 -111 155 -150 156 -102 3 -187 8 -199 13 -8 3 -17
1 -20 -5 -4 -5 -12 -6 -18 -2 -11 7 -775 12 -781 6z"/>
<path d="M4409 6523 c-7 -16 -28 -51 -46 -80 -18 -29 -33 -56 -33 -62 0 -5 -6
-16 -13 -23 -7 -7 -30 -44 -51 -83 -21 -38 -45 -77 -52 -86 -8 -8 -14 -18 -14
-21 0 -3 -37 -68 -81 -144 -45 -77 -93 -159 -107 -184 -14 -25 -33 -57 -43
-72 -11 -14 -19 -29 -19 -32 0 -5 -19 -38 -125 -216 -18 -30 -42 -71 -53 -90
-10 -19 -51 -89 -90 -155 -38 -66 -69 -122 -67 -124 2 -2 110 -3 240 -2 l236
1 -28 -52 c-15 -29 -31 -54 -35 -56 -5 -2 -8 -8 -8 -13 0 -5 -21 -44 -46 -87
-49 -83 -55 -94 -93 -162 -14 -25 -28 -47 -31 -50 -4 -3 -13 -18 -22 -35 -8
-16 -25 -48 -38 -70 -12 -22 -34 -60 -48 -85 -13 -25 -32 -53 -41 -64 -9 -10
-15 -20 -13 -22 2 -3 -22 -46 -52 -98 -114 -194 -246 -428 -246 -437 0 -5 -4
-9 -9 -9 -9 0 -34 -53 -32 -67 1 -4 213 -8 471 -8 345 0 473 -3 478 -12 4 -6
7 -134 7 -285 l0 -273 -886 0 -886 0 1 145 1 145 35 2 c19 1 40 2 45 3 6 1 15
1 20 0 6 -1 37 -1 70 -1 62 1 80 2 118 1 12 0 40 0 62 1 22 0 42 0 45 -1 17
-5 150 -4 150 2 0 4 -7 13 -15 22 -8 8 -15 18 -15 21 0 6 -30 61 -93 168 -11
18 -64 111 -119 207 -56 96 -120 207 -144 246 l-42 72 126 1 c124 2 146 5 127
19 -6 4 -16 18 -23 32 -6 14 -16 32 -22 40 -28 42 -170 293 -170 300 0 5 -3
10 -8 12 -4 2 -51 80 -105 175 -54 94 -104 179 -112 189 -12 17 -13 16 -19 -4
-4 -12 -12 -22 -17 -22 -5 0 -9 -6 -9 -14 0 -8 -8 -22 -17 -32 -10 -10 -17
-19 -15 -21 2 -3 -12 -30 -71 -128 -10 -16 -23 -42 -30 -57 -6 -16 -15 -28
-19 -28 -4 0 -8 -4 -8 -10 0 -8 -68 -128 -119 -210 -8 -14 -22 -38 -31 -55
-30 -56 -73 -130 -86 -150 -8 -11 -14 -22 -14 -26 0 -10 50 -18 55 -9 3 4 19
6 37 3 18 -2 40 -4 48 -3 44 1 125 -2 128 -4 1 -2 -27 -53 -63 -114 -36 -61
-65 -113 -65 -116 0 -3 -18 -34 -40 -68 -22 -35 -40 -69 -40 -75 0 -7 -3 -13
-8 -13 -4 0 -18 -21 -32 -47 -22 -44 -65 -117 -98 -168 -6 -11 -15 -27 -19
-35 -3 -8 -14 -27 -24 -41 -10 -14 -16 -29 -12 -33 3 -3 1 -6 -5 -6 -7 0 -12
-6 -12 -14 0 -11 7 -13 29 -6 16 4 31 7 33 5 3 -4 43 -6 91 -5 9 0 40 0 67 0
28 0 56 0 63 1 6 0 41 -1 77 -2 36 -1 70 0 75 1 6 1 15 1 20 0 6 -1 24 -1 40
0 l30 1 0 -148 0 -148 -718 0 -717 0 -1 -32 c-1 -41 -1 -80 0 -245 l1 -133
3482 0 3483 0 5 40 c3 22 2 54 -1 72 -4 17 -3 50 1 72 4 23 4 41 0 41 -4 0 -4
19 0 42 5 24 6 46 3 50 -2 5 -4 26 -5 47 0 28 -5 40 -17 43 -9 2 -330 4 -713
3 -467 0 -699 3 -701 10 -2 5 -3 70 -3 144 1 126 2 134 21 138 29 6 115 4 125
-2 5 -3 11 -1 15 5 4 6 11 8 16 5 9 -6 94 -9 114 -5 6 1 15 1 20 0 6 -1 30 -1
55 -1 25 1 54 1 65 1 19 0 57 1 82 3 13 0 -10 46 -89 175 -21 34 -38 67 -38
72 0 6 -4 10 -10 10 -5 0 -10 4 -10 9 0 7 -68 129 -100 181 -49 76 -160 274
-160 283 0 9 36 11 135 9 74 -2 135 -1 135 3 0 3 -20 39 -45 79 -25 41 -45 78
-45 82 0 4 -6 15 -14 23 -7 9 -25 36 -38 61 -14 25 -39 69 -57 98 -17 29 -31
57 -31 62 0 6 -4 10 -8 10 -4 0 -13 12 -19 28 -7 15 -18 36 -25 47 -50 78 -65
104 -77 133 -7 17 -16 32 -20 32 -3 0 -17 23 -31 51 -33 68 -44 75 -61 41 -8
-15 -17 -29 -20 -32 -3 -3 -12 -18 -21 -35 -12 -25 -202 -352 -292 -505 -15
-25 -29 -53 -33 -62 -3 -10 -9 -18 -14 -18 -5 0 -9 -6 -9 -13 0 -7 -11 -29
-25 -50 l-26 -37 23 -1 c13 -1 28 0 33 1 6 1 33 2 60 1 28 -1 72 -1 98 -1 l48
0 -21 -37 c-32 -60 -57 -102 -67 -115 -6 -7 -27 -43 -47 -81 -36 -66 -117
-207 -136 -237 -15 -23 -95 -163 -99 -174 -2 -5 -14 -25 -27 -44 -22 -31 -33
-65 -18 -49 4 3 15 2 25 -4 13 -6 19 -6 19 0 0 6 6 8 13 6 23 -9 107 -11 119
-4 6 4 21 4 32 -1 12 -4 30 -4 40 0 11 3 38 3 62 0 23 -4 49 -3 56 1 8 4 20 4
27 0 7 -5 28 -5 47 -1 19 4 34 5 34 1 0 -4 14 -6 30 -3 17 2 31 0 31 -4 4 -22
5 -270 2 -279 -4 -11 -1757 -15 -1768 -4 -3 4 -6 33 -5 65 0 33 1 68 1 79 0
11 0 56 0 100 1 44 0 94 -1 110 -1 17 -2 35 -2 40 0 6 1 46 2 90 l2 80 476 0
c262 -1 480 0 484 2 7 4 -9 40 -22 53 -3 3 -12 18 -20 35 -8 16 -32 58 -52 92
-21 35 -38 67 -38 73 0 5 -4 10 -10 10 -5 0 -10 4 -10 9 0 9 -47 94 -85 156
-7 11 -13 25 -14 30 -1 6 -8 17 -15 25 -12 14 -32 48 -86 145 -12 22 -53 93
-91 157 -38 64 -69 121 -69 127 0 5 -3 11 -7 13 -5 2 -15 17 -24 33 -9 17 -42
75 -74 130 -32 55 -63 109 -69 120 -6 11 -15 23 -21 27 -5 4 -6 8 -1 8 5 0 2
8 -6 18 -8 9 -18 25 -21 35 -6 16 7 17 228 15 129 -2 235 0 235 4 0 4 -27 53
-60 109 -33 55 -60 103 -60 105 0 2 -12 23 -27 47 -22 34 -126 211 -213 362
-10 17 -104 179 -210 360 -106 182 -204 349 -217 373 -14 23 -28 42 -32 42 -4
0 -14 -12 -22 -27z"/>
<path d="M6177 2454 c-1 -1 -40 -4 -87 -7 -47 -4 -112 -11 -145 -17 -33 -6
-69 -13 -80 -14 -11 -2 -20 -5 -20 -6 0 -1 -9 -4 -20 -6 -11 -1 -47 -9 -80
-17 -33 -8 -85 -18 -115 -22 -30 -4 -66 -8 -80 -10 -14 -2 -52 -6 -85 -9 -33
-3 -80 -8 -105 -11 -168 -20 -451 -29 -885 -29 -416 0 -710 9 -848 28 -23 3
-64 9 -92 12 -27 3 -59 8 -70 9 -11 2 -40 7 -64 10 -24 3 -87 18 -140 31 -53
14 -105 27 -116 29 -11 2 -42 7 -70 11 -95 16 -567 8 -717 -11 -21 -3 -55 -7
-75 -10 -21 -3 -58 -7 -83 -10 -25 -3 -56 -8 -70 -10 -14 -2 -45 -7 -70 -10
-96 -13 -188 -29 -320 -54 -86 -17 -90 -18 -175 -36 -44 -9 -91 -19 -105 -22
-44 -9 -55 -11 -55 -13 0 -1 -9 -3 -20 -6 -91 -17 -89 -16 -68 -74 4 -8 8 -26
10 -40 2 -14 6 -32 10 -40 3 -8 7 -20 8 -26 2 -6 13 -51 25 -100 12 -49 23
-93 24 -99 3 -21 19 -36 31 -31 14 5 234 55 275 62 14 3 59 12 100 20 79 17
89 18 160 28 25 4 52 8 60 11 8 2 35 7 60 10 25 3 52 7 60 9 8 3 40 7 71 11
31 3 65 7 75 9 11 2 53 7 94 11 41 4 91 9 110 11 78 9 481 11 531 2 30 -5 63
-10 74 -12 11 -2 54 -12 95 -24 41 -11 89 -23 105 -25 17 -3 41 -8 55 -11 37
-8 89 -16 141 -21 26 -2 66 -7 90 -11 24 -3 69 -8 99 -9 30 -2 98 -6 150 -9
52 -4 140 -9 195 -11 117 -7 763 -7 915 0 223 8 352 17 490 31 36 4 76 8 90 9
79 9 148 17 170 21 14 2 41 7 60 10 19 3 82 16 140 30 58 13 134 28 170 33 58
8 387 6 465 -3 17 -2 62 -6 100 -10 39 -4 81 -9 95 -12 14 -2 43 -6 65 -9 22
-3 67 -11 100 -17 69 -12 85 -14 140 -22 22 -4 49 -9 60 -13 11 -3 31 -7 45
-8 14 -1 34 -5 45 -8 11 -4 63 -16 115 -28 81 -17 137 -30 233 -54 10 -2 18 2
18 11 2 16 5 33 9 37 1 1 3 9 5 17 40 151 78 288 85 301 8 13 4 19 -18 27 -25
10 -98 30 -132 37 -8 2 -33 8 -55 14 -34 8 -143 32 -220 47 -11 2 -42 8 -70
14 -66 14 -77 16 -165 30 -41 6 -86 13 -100 16 -14 2 -47 7 -75 10 -27 4 -53
8 -56 10 -4 2 -37 6 -75 10 -38 3 -85 8 -104 10 -106 10 -387 23 -393 18z"/>
<path d="M2829 1606 c-2 -2 -29 -6 -59 -9 -30 -4 -91 -13 -135 -22 -44 -9 -91
-18 -105 -21 -66 -12 -290 -79 -406 -120 -71 -25 -133 -47 -139 -48 -5 -2 -23
-9 -40 -15 -16 -7 -34 -14 -40 -15 -5 -2 -23 -8 -38 -14 -16 -7 -33 -12 -39
-12 -6 0 -7 -8 -3 -17 4 -10 8 -22 9 -28 2 -5 6 -17 9 -25 14 -34 88 -236 92
-250 2 -8 8 -27 14 -43 10 -27 11 -27 45 -13 19 8 37 12 40 8 3 -3 6 0 6 6 0
7 6 12 14 12 11 0 42 11 141 50 67 26 279 92 343 105 9 2 46 10 82 19 66 15
103 22 199 35 57 8 271 7 306 -2 11 -3 40 -10 65 -17 25 -7 53 -14 63 -16 10
-2 27 -6 38 -9 10 -4 31 -8 47 -10 15 -2 28 -4 30 -6 4 -3 15 -5 77 -13 32 -4
68 -10 80 -13 11 -2 34 -6 50 -8 17 -1 48 -6 70 -9 56 -10 158 -19 365 -33
211 -14 845 -7 1055 11 22 2 81 7 130 11 175 14 268 24 305 31 14 2 43 6 65 9
22 2 51 6 65 9 14 3 43 7 65 11 79 11 110 18 129 27 12 7 16 7 12 0 -3 -6 15
-3 42 5 45 15 168 25 185 15 5 -2 33 -6 63 -8 30 -2 58 -5 63 -8 4 -3 22 -8
39 -11 17 -3 62 -12 99 -20 37 -9 77 -17 88 -20 90 -20 461 -133 560 -171 10
-4 19 4 29 27 7 19 17 43 21 54 5 11 9 22 9 25 1 3 6 19 13 35 37 100 74 206
78 224 3 17 -4 22 -38 31 -23 6 -55 17 -72 25 -16 7 -43 16 -60 20 -16 4 -39
10 -50 15 -22 10 -119 41 -138 44 -17 4 -97 27 -127 37 -14 5 -36 11 -50 14
-14 3 -83 19 -155 35 -171 40 -170 40 -224 45 -25 2 -46 5 -46 5 0 6 -89 12
-175 12 -101 0 -124 -2 -200 -22 -19 -5 -51 -12 -70 -15 -41 -7 -77 -13 -105
-19 -28 -5 -101 -15 -160 -21 -27 -3 -61 -8 -75 -10 -28 -4 -176 -17 -345 -30
-265 -19 -751 -25 -995 -11 -140 8 -158 9 -275 22 -38 4 -85 8 -102 8 -18 1
-33 3 -33 6 0 3 -15 7 -32 8 -28 2 -209 35 -258 47 -46 12 -141 35 -166 41
-32 7 -338 16 -345 10z"/>
<path d="M2709 862 c-8 -9 -40 -51 -73 -92 -32 -41 -62 -76 -67 -78 -5 -2 -9
-7 -9 -12 0 -8 -24 -40 -61 -79 -34 -38 -30 -46 59 -106 48 -32 107 -70 132
-83 118 -65 192 -101 265 -131 44 -17 89 -36 100 -41 50 -23 254 -88 259 -83
3 4 6 1 6 -6 0 -7 4 -10 8 -7 5 3 35 -3 68 -13 32 -10 62 -18 67 -19 7 -1 87
-17 137 -28 87 -18 234 -41 320 -48 25 -2 86 -8 135 -12 162 -14 559 -8 710
11 17 2 57 6 90 10 33 3 71 8 85 10 14 3 41 7 60 10 19 3 44 7 55 9 11 2 40 7
65 11 25 4 54 9 65 12 27 6 55 12 85 18 14 4 36 8 50 11 14 3 77 19 140 36 63
16 122 31 130 33 8 2 34 10 58 19 23 8 42 13 42 9 0 -3 6 -1 13 5 7 6 24 13
37 16 14 2 45 12 70 21 25 9 50 18 55 19 6 2 17 6 25 9 8 3 62 24 120 46 58
21 159 62 225 91 66 28 125 54 131 57 9 3 8 11 -1 31 -13 27 -52 110 -120 257
-21 44 -39 81 -40 83 -3 3 -80 -28 -170 -68 -164 -73 -534 -200 -655 -225 -8
-2 -15 -4 -15 -5 0 -1 -7 -3 -15 -5 -8 -2 -35 -8 -60 -14 -25 -7 -54 -13 -65
-15 -11 -2 -53 -11 -93 -20 -40 -9 -87 -18 -105 -21 -18 -2 -43 -6 -57 -9 -28
-6 -79 -13 -160 -22 -76 -9 -74 -9 -87 -17 -8 -5 -13 -3 -13 3 0 6 -5 8 -10 5
-28 -17 -424 -25 -610 -12 -115 8 -165 14 -250 27 -36 5 -79 11 -97 14 -17 2
-36 6 -40 9 -5 3 -30 8 -57 11 -26 3 -51 8 -55 10 -4 3 -18 7 -32 10 -20 4
-72 18 -159 41 -8 2 -16 4 -17 5 -2 2 -6 3 -10 4 -113 25 -496 197 -549 247
-11 10 -24 19 -28 19 -4 0 -22 11 -40 25 -30 23 -33 23 -47 7z"/>
</g>
</svg>
